<mxfile host="app.diagrams.net" agent="Mozilla/5.0 (Macintosh; Intel Mac OS X 10_15_7) AppleWebKit/537.36 (KHTML, like Gecko) Chrome/138.0.0.0 YaBrowser/25.8.0.0 Safari/537.36" version="28.2.7">
  <diagram name="Страница — 1" id="sZAZ1cgbp_pioMIi8qJi">
    <mxGraphModel dx="2066" dy="1062" grid="1" gridSize="10" guides="1" tooltips="1" connect="1" arrows="1" fold="1" page="1" pageScale="1" pageWidth="827" pageHeight="1169" math="0" shadow="0">
      <root>
        <mxCell id="0" />
        <mxCell id="1" parent="0" />
        <mxCell id="w-t0pKrUIKQgMjbEaAkE-2" value="Tablet 1" style="rounded=1;whiteSpace=wrap;html=1;fillColor=#dae8fc;strokeColor=#6c8ebf;" parent="1" vertex="1">
          <mxGeometry x="190" y="170" width="120" height="60" as="geometry" />
        </mxCell>
        <mxCell id="w-t0pKrUIKQgMjbEaAkE-49" style="edgeStyle=orthogonalEdgeStyle;rounded=0;orthogonalLoop=1;jettySize=auto;html=1;exitX=0.5;exitY=1;exitDx=0;exitDy=0;" parent="1" source="w-t0pKrUIKQgMjbEaAkE-4" target="w-t0pKrUIKQgMjbEaAkE-20" edge="1">
          <mxGeometry relative="1" as="geometry" />
        </mxCell>
        <mxCell id="w-t0pKrUIKQgMjbEaAkE-4" value="DSProxy" style="rounded=1;whiteSpace=wrap;html=1;fillColor=#fff2cc;strokeColor=#d6b656;" parent="1" vertex="1">
          <mxGeometry x="120" y="260" width="120" height="60" as="geometry" />
        </mxCell>
        <mxCell id="w-t0pKrUIKQgMjbEaAkE-48" style="edgeStyle=orthogonalEdgeStyle;rounded=0;orthogonalLoop=1;jettySize=auto;html=1;exitX=0.5;exitY=1;exitDx=0;exitDy=0;" parent="1" source="w-t0pKrUIKQgMjbEaAkE-5" target="w-t0pKrUIKQgMjbEaAkE-21" edge="1">
          <mxGeometry relative="1" as="geometry" />
        </mxCell>
        <mxCell id="w-t0pKrUIKQgMjbEaAkE-5" value="DSProxy" style="rounded=1;whiteSpace=wrap;html=1;fillColor=#fff2cc;strokeColor=#d6b656;" parent="1" vertex="1">
          <mxGeometry x="260" y="260" width="120" height="60" as="geometry" />
        </mxCell>
        <mxCell id="w-t0pKrUIKQgMjbEaAkE-6" style="edgeStyle=orthogonalEdgeStyle;rounded=0;orthogonalLoop=1;jettySize=auto;html=1;exitX=0.25;exitY=1;exitDx=0;exitDy=0;entryX=0.842;entryY=0.033;entryDx=0;entryDy=0;entryPerimeter=0;" parent="1" source="w-t0pKrUIKQgMjbEaAkE-2" target="w-t0pKrUIKQgMjbEaAkE-4" edge="1">
          <mxGeometry relative="1" as="geometry" />
        </mxCell>
        <mxCell id="w-t0pKrUIKQgMjbEaAkE-7" style="edgeStyle=orthogonalEdgeStyle;rounded=0;orthogonalLoop=1;jettySize=auto;html=1;exitX=0.75;exitY=1;exitDx=0;exitDy=0;entryX=0.167;entryY=0.033;entryDx=0;entryDy=0;entryPerimeter=0;" parent="1" source="w-t0pKrUIKQgMjbEaAkE-2" target="w-t0pKrUIKQgMjbEaAkE-5" edge="1">
          <mxGeometry relative="1" as="geometry" />
        </mxCell>
        <mxCell id="w-t0pKrUIKQgMjbEaAkE-28" style="edgeStyle=orthogonalEdgeStyle;rounded=0;orthogonalLoop=1;jettySize=auto;html=1;exitX=0.75;exitY=1;exitDx=0;exitDy=0;entryX=0.5;entryY=0;entryDx=0;entryDy=0;" parent="1" source="w-t0pKrUIKQgMjbEaAkE-8" target="w-t0pKrUIKQgMjbEaAkE-9" edge="1">
          <mxGeometry relative="1" as="geometry" />
        </mxCell>
        <mxCell id="w-t0pKrUIKQgMjbEaAkE-8" value="VDisk" style="rounded=1;whiteSpace=wrap;html=1;fillColor=#d5e8d4;strokeColor=#82b366;" parent="1" vertex="1">
          <mxGeometry x="120" y="500" width="120" height="60" as="geometry" />
        </mxCell>
        <mxCell id="w-t0pKrUIKQgMjbEaAkE-30" style="edgeStyle=orthogonalEdgeStyle;rounded=0;orthogonalLoop=1;jettySize=auto;html=1;exitX=0.5;exitY=1;exitDx=0;exitDy=0;entryX=0.5;entryY=0;entryDx=0;entryDy=0;" parent="1" source="w-t0pKrUIKQgMjbEaAkE-9" target="w-t0pKrUIKQgMjbEaAkE-10" edge="1">
          <mxGeometry relative="1" as="geometry" />
        </mxCell>
        <mxCell id="w-t0pKrUIKQgMjbEaAkE-9" value="PDisk" style="rounded=1;whiteSpace=wrap;html=1;fillColor=#e1d5e7;strokeColor=#9673a6;" parent="1" vertex="1">
          <mxGeometry x="190" y="590" width="120" height="60" as="geometry" />
        </mxCell>
        <mxCell id="w-t0pKrUIKQgMjbEaAkE-10" value="Hardware Storage (HDD, SDD)" style="rounded=1;whiteSpace=wrap;html=1;fillColor=#e1d5e7;strokeColor=#9673a6;" parent="1" vertex="1">
          <mxGeometry x="190" y="665" width="120" height="60" as="geometry" />
        </mxCell>
        <mxCell id="w-t0pKrUIKQgMjbEaAkE-29" style="edgeStyle=orthogonalEdgeStyle;rounded=0;orthogonalLoop=1;jettySize=auto;html=1;exitX=0.5;exitY=1;exitDx=0;exitDy=0;entryX=0.5;entryY=0;entryDx=0;entryDy=0;" parent="1" source="w-t0pKrUIKQgMjbEaAkE-11" target="w-t0pKrUIKQgMjbEaAkE-9" edge="1">
          <mxGeometry relative="1" as="geometry" />
        </mxCell>
        <mxCell id="w-t0pKrUIKQgMjbEaAkE-11" value="VDisk" style="rounded=1;whiteSpace=wrap;html=1;fillColor=#d5e8d4;strokeColor=#82b366;" parent="1" vertex="1">
          <mxGeometry x="260" y="500" width="120" height="60" as="geometry" />
        </mxCell>
        <mxCell id="w-t0pKrUIKQgMjbEaAkE-32" style="edgeStyle=orthogonalEdgeStyle;rounded=0;orthogonalLoop=1;jettySize=auto;html=1;exitX=0.5;exitY=1;exitDx=0;exitDy=0;" parent="1" source="w-t0pKrUIKQgMjbEaAkE-14" target="w-t0pKrUIKQgMjbEaAkE-18" edge="1">
          <mxGeometry relative="1" as="geometry" />
        </mxCell>
        <mxCell id="w-t0pKrUIKQgMjbEaAkE-14" value="VDisk" style="rounded=1;whiteSpace=wrap;html=1;fillColor=#ffe6cc;strokeColor=#d79b00;" parent="1" vertex="1">
          <mxGeometry x="400" y="500" width="120" height="60" as="geometry" />
        </mxCell>
        <mxCell id="w-t0pKrUIKQgMjbEaAkE-33" style="edgeStyle=orthogonalEdgeStyle;rounded=0;orthogonalLoop=1;jettySize=auto;html=1;exitX=0.5;exitY=1;exitDx=0;exitDy=0;entryX=0.5;entryY=0;entryDx=0;entryDy=0;" parent="1" source="w-t0pKrUIKQgMjbEaAkE-17" target="w-t0pKrUIKQgMjbEaAkE-18" edge="1">
          <mxGeometry relative="1" as="geometry" />
        </mxCell>
        <mxCell id="w-t0pKrUIKQgMjbEaAkE-17" value="VDisk" style="rounded=1;whiteSpace=wrap;html=1;fillColor=#ffe6cc;strokeColor=#d79b00;" parent="1" vertex="1">
          <mxGeometry x="540" y="500" width="120" height="60" as="geometry" />
        </mxCell>
        <mxCell id="w-t0pKrUIKQgMjbEaAkE-31" style="edgeStyle=orthogonalEdgeStyle;rounded=0;orthogonalLoop=1;jettySize=auto;html=1;exitX=0.5;exitY=1;exitDx=0;exitDy=0;entryX=0.5;entryY=0;entryDx=0;entryDy=0;" parent="1" source="w-t0pKrUIKQgMjbEaAkE-18" target="w-t0pKrUIKQgMjbEaAkE-19" edge="1">
          <mxGeometry relative="1" as="geometry" />
        </mxCell>
        <mxCell id="w-t0pKrUIKQgMjbEaAkE-18" value="PDisk" style="rounded=1;whiteSpace=wrap;html=1;fillColor=#e1d5e7;strokeColor=#9673a6;" parent="1" vertex="1">
          <mxGeometry x="480" y="590" width="120" height="60" as="geometry" />
        </mxCell>
        <mxCell id="w-t0pKrUIKQgMjbEaAkE-19" value="Hardware Storage (HDD, SDD)" style="rounded=1;whiteSpace=wrap;html=1;fillColor=#e1d5e7;strokeColor=#9673a6;" parent="1" vertex="1">
          <mxGeometry x="480" y="665" width="120" height="60" as="geometry" />
        </mxCell>
        <mxCell id="w-t0pKrUIKQgMjbEaAkE-20" value="Storage Group" style="rounded=0;whiteSpace=wrap;html=1;fillColor=#d5e8d4;strokeColor=#82b366;" parent="1" vertex="1">
          <mxGeometry x="120" y="410" width="240" height="30" as="geometry" />
        </mxCell>
        <mxCell id="w-t0pKrUIKQgMjbEaAkE-21" value="Storage Group" style="rounded=0;whiteSpace=wrap;html=1;fillColor=#ffe6cc;strokeColor=#d79b00;" parent="1" vertex="1">
          <mxGeometry x="420" y="450" width="350" height="30" as="geometry" />
        </mxCell>
        <mxCell id="w-t0pKrUIKQgMjbEaAkE-35" style="edgeStyle=orthogonalEdgeStyle;rounded=0;orthogonalLoop=1;jettySize=auto;html=1;exitX=0.5;exitY=1;exitDx=0;exitDy=0;" parent="1" source="w-t0pKrUIKQgMjbEaAkE-24" target="w-t0pKrUIKQgMjbEaAkE-18" edge="1">
          <mxGeometry relative="1" as="geometry" />
        </mxCell>
        <mxCell id="w-t0pKrUIKQgMjbEaAkE-24" value="VDisk" style="rounded=1;whiteSpace=wrap;html=1;fillColor=#ffe6cc;strokeColor=#d79b00;" parent="1" vertex="1">
          <mxGeometry x="680" y="500" width="120" height="60" as="geometry" />
        </mxCell>
        <mxCell id="w-t0pKrUIKQgMjbEaAkE-41" value="" style="endArrow=classic;html=1;rounded=0;exitX=0.25;exitY=1;exitDx=0;exitDy=0;" parent="1" source="w-t0pKrUIKQgMjbEaAkE-20" edge="1">
          <mxGeometry width="50" height="50" relative="1" as="geometry">
            <mxPoint x="179.67" y="450" as="sourcePoint" />
            <mxPoint x="179.67" y="500" as="targetPoint" />
            <Array as="points">
              <mxPoint x="179.67" y="460" />
            </Array>
          </mxGeometry>
        </mxCell>
        <mxCell id="w-t0pKrUIKQgMjbEaAkE-42" value="" style="endArrow=classic;html=1;rounded=0;exitX=0.183;exitY=1.022;exitDx=0;exitDy=0;exitPerimeter=0;" parent="1" edge="1">
          <mxGeometry width="50" height="50" relative="1" as="geometry">
            <mxPoint x="319.67" y="440" as="sourcePoint" />
            <mxPoint x="319.67" y="499" as="targetPoint" />
          </mxGeometry>
        </mxCell>
        <mxCell id="w-t0pKrUIKQgMjbEaAkE-44" value="" style="endArrow=classic;html=1;rounded=0;exitX=0.183;exitY=1.022;exitDx=0;exitDy=0;exitPerimeter=0;" parent="1" edge="1">
          <mxGeometry width="50" height="50" relative="1" as="geometry">
            <mxPoint x="459.67" y="480" as="sourcePoint" />
            <mxPoint x="459.67" y="500" as="targetPoint" />
          </mxGeometry>
        </mxCell>
        <mxCell id="w-t0pKrUIKQgMjbEaAkE-45" value="" style="endArrow=classic;html=1;rounded=0;exitX=0.183;exitY=1.022;exitDx=0;exitDy=0;exitPerimeter=0;" parent="1" edge="1">
          <mxGeometry width="50" height="50" relative="1" as="geometry">
            <mxPoint x="580" y="480" as="sourcePoint" />
            <mxPoint x="580" y="500" as="targetPoint" />
          </mxGeometry>
        </mxCell>
        <mxCell id="w-t0pKrUIKQgMjbEaAkE-50" value="" style="endArrow=classic;html=1;rounded=0;exitX=0.183;exitY=1.022;exitDx=0;exitDy=0;exitPerimeter=0;" parent="1" edge="1">
          <mxGeometry width="50" height="50" relative="1" as="geometry">
            <mxPoint x="739.78" y="480" as="sourcePoint" />
            <mxPoint x="739.78" y="500" as="targetPoint" />
          </mxGeometry>
        </mxCell>
      </root>
    </mxGraphModel>
  </diagram>
</mxfile>
